<?xml version="1.0" encoding="UTF-8" standalone="no"?>
<svg
   xmlns:dc="http://purl.org/dc/elements/1.1/"
   xmlns:cc="http://creativecommons.org/ns#"
   xmlns:rdf="http://www.w3.org/1999/02/22-rdf-syntax-ns#"
   xmlns:svg="http://www.w3.org/2000/svg"
   xmlns="http://www.w3.org/2000/svg"
   viewBox="0 0 504.62747 241.99992"
   height="241.99992"
   width="504.62747"
   xml:space="preserve"
   id="svg304"
   version="1.1"><metadata
     id="metadata310"><rdf:RDF><cc:Work
         rdf:about=""><dc:format>image/svg+xml</dc:format><dc:type
           rdf:resource="http://purl.org/dc/dcmitype/StillImage" /><dc:title></dc:title></cc:Work></rdf:RDF></metadata><defs
     id="defs308" /><g
     transform="matrix(1.3333333,0,0,-1.3333333,1.9994792,239.99992)"
     id="g312"><g
       transform="scale(0.1)"
       id="g314"><path
         id="path316"
         style="fill:#1f262f;fill-opacity:1;fill-rule:nonzero;stroke:none"
         d="m 1473.15,117.922 h 100.71 l -50.35,130.5 z m 33.99,180.848 h 32.73 L 1654.43,5.03906 H 1617.5 L 1586.87,84.3516 H 1460.14 L 1429.51,5.03906 h -37.76 L 1507.14,298.77" /><path
         id="path318"
         style="fill:#1f262f;fill-opacity:1;fill-rule:nonzero;stroke:none"
         d="m 1725.78,63.3711 c 0,0 20.56,-31.4805 58.74,-31.4805 19.73,0 41.97,8.3907 41.97,23.918 0,16.793 -14.27,25.1797 -44.06,31.0508 -41.54,8.3906 -70.92,24.7616 -70.92,61.2616 0,28.117 28.12,55.82 71.34,55.82 45.74,0 71.75,-29.382 71.75,-29.382 l -23.07,-23.918 c 0,0 -19.31,21.41 -48.68,21.41 -24.76,0 -36.93,-12.18 -36.93,-24.77 0,-14.672 15.11,-22.652 47,-29.359 36.93,-7.981 68.4,-21.8322 68.4,-61.2736 C 1861.32,19.3086 1821.87,0 1784.52,0 c -54.54,0 -83.08,40.6992 -83.08,40.6992 l 24.34,22.6719" /><path
         id="path320"
         style="fill:#1f262f;fill-opacity:1;fill-rule:nonzero;stroke:none"
         d="m 1946.08,63.3711 c 0,0 20.57,-31.4805 58.75,-31.4805 19.72,0 41.96,8.3907 41.96,23.918 0,16.793 -14.26,25.1797 -44.06,31.0508 -41.54,8.3906 -70.92,24.7616 -70.92,61.2616 0,28.117 28.12,55.82 71.34,55.82 45.73,0 71.76,-29.382 71.76,-29.382 l -23.09,-23.918 c 0,0 -19.29,21.41 -48.67,21.41 -24.75,0 -36.92,-12.18 -36.92,-24.77 0,-14.672 15.1,-22.652 46.99,-29.359 36.92,-7.981 68.4,-21.8322 68.4,-61.2736 C 2081.62,19.3086 2042.17,0 2004.83,0 c -54.55,0 -83.08,40.6992 -83.08,40.6992 l 24.33,22.6719" /><path
         id="path322"
         style="fill:#1f262f;fill-opacity:1;fill-rule:nonzero;stroke:none"
         d="m 2305.71,101.969 c 0,38.191 -25.6,69.242 -64.62,69.242 -39.03,0 -64.63,-31.051 -64.63,-69.242 0,-38.1799 25.6,-69.2385 64.63,-69.2385 39.02,0 64.62,31.0586 64.62,69.2385 z m 35.24,0 C 2340.95,44.8984 2298.15,0 2241.09,0 c -57.07,0 -99.87,44.8984 -99.87,101.969 0,57.07 42.8,101.972 99.87,101.972 57.06,0 99.86,-44.902 99.86,-101.972" /><path
         id="path324"
         style="fill:#1f262f;fill-opacity:1;fill-rule:nonzero;stroke:none"
         d="m 2576.37,37.3516 c 0,0 -28.11,-37.3516 -79.3,-37.3516 -57.07,0 -99.88,44.8984 -99.88,101.969 0,56.652 42.81,101.972 99.88,101.972 49.51,0 77.2,-34.832 77.2,-34.832 l -23.91,-21.41 c 0,0 -18.89,23.512 -53.29,23.512 -39.04,0 -64.63,-31.051 -64.63,-69.242 0,-38.1799 25.59,-69.2385 64.63,-69.2385 37.76,0 56.64,27.6992 56.64,27.6992 l 22.66,-23.0781" /><path
         id="path326"
         style="fill:#1f262f;fill-opacity:1;fill-rule:nonzero;stroke:none"
         d="m 2646.46,198.91 h 35.25 V 5.03906 h -35.25 z m 17.62,86.012 c 13.01,0 23.92,-10.91 23.92,-23.91 0,-13.012 -10.91,-23.922 -23.92,-23.922 -13.01,0 -23.92,10.91 -23.92,23.922 0,13 10.91,23.91 23.92,23.91" /><path
         id="path328"
         style="fill:#1f262f;fill-opacity:1;fill-rule:nonzero;stroke:none"
         d="m 2896.97,60.4297 v 27.2695 c 0,0 -19.31,13.8518 -50.78,13.8518 -30.21,0 -49.09,-15.1096 -49.09,-35.2502 0,-25.1797 22.65,-35.25 44.48,-35.25 34.4,0 55.39,29.3789 55.39,29.3789 z m 35.24,72.1793 V 5.03906 H 2899.9 V 33.1484 c 0,0 -21.82,-33.1484 -65.88,-33.1484 -34.82,0 -72.17,24.3516 -72.17,66.3008 0,37.7692 33.15,64.6292 76.79,64.6292 35.66,0 58.33,-15.95 58.33,-15.95 v 10.489 c 0,40.281 -33.57,45.742 -49.1,45.742 -29.38,0 -57.9,-16.371 -57.9,-16.371 l -14.69,29.379 c 0,0 30.21,19.722 72.59,19.722 57.07,0 84.34,-35.25 84.34,-71.332" /><path
         id="path330"
         style="fill:#1f262f;fill-opacity:1;fill-rule:nonzero;stroke:none"
         d="m 2998.53,198.91 h 37.77 v 59.16 h 35.25 v -59.16 h 60.42 v -31.898 h -60.42 V 62.5313 c 0,-18.8907 9.23,-29.8008 28.12,-29.8008 10.9,0 22.23,7.9687 22.23,7.9687 L 3134.91,11.75 C 3118.12,2.51953 3105.95,0 3094.63,0 3066.93,0 3036.3,18.0508 3036.3,60.8516 V 167.012 h -37.77 v 31.898" /><path
         id="path332"
         style="fill:#1f262f;fill-opacity:1;fill-rule:nonzero;stroke:none"
         d="m 3208.78,198.91 h 35.24 V 5.03906 h -35.24 z m 17.61,86.012 c 13.01,0 23.92,-10.91 23.92,-23.91 0,-13.012 -10.91,-23.922 -23.92,-23.922 -13,0 -23.91,10.91 -23.91,23.922 0,13 10.91,23.91 23.91,23.91" /><path
         id="path334"
         style="fill:#1f262f;fill-opacity:1;fill-rule:nonzero;stroke:none"
         d="m 3484.46,101.969 c 0,38.191 -25.6,69.242 -64.62,69.242 -39.03,0 -64.63,-31.051 -64.63,-69.242 0,-38.1799 25.6,-69.2385 64.63,-69.2385 39.02,0 64.62,31.0586 64.62,69.2385 z m 35.24,0 C 3519.7,44.8984 3476.9,0 3419.84,0 c -57.07,0 -99.87,44.8984 -99.87,101.969 0,57.07 42.8,101.972 99.87,101.972 57.06,0 99.86,-44.902 99.86,-101.972" /><path
         id="path336"
         style="fill:#1f262f;fill-opacity:1;fill-rule:nonzero;stroke:none"
         d="M 3754.71,129.672 V 5.03906 h -35.25 V 123.789 c 0,33.152 -20.56,47.422 -46.57,47.422 -31.48,0 -48.26,-32.731 -48.26,-32.731 V 5.03906 h -35.25 V 198.91 h 32.74 v -27.281 c 0,0 17.61,32.312 59.58,32.312 38.6,0 73.01,-26.441 73.01,-74.269" /><path
         id="path338"
         style="fill:#de1d31;fill-opacity:1;fill-rule:nonzero;stroke:none"
         d="m 2600.46,1101.13 c 0,56.46 45.77,102.23 102.22,102.23 56.47,0 102.24,-45.77 102.24,-102.23 0,-56.46 -45.77,-102.224 -102.24,-102.224 -56.45,0 -102.22,45.764 -102.22,102.224" /><path
         id="path340"
         style="fill:#707a84;fill-opacity:1;fill-rule:nonzero;stroke:none"
         d="M 638.063,360.75 325.793,8.37891 H 599.094 L 788.066,239.531 C 728.531,266.98 677.191,308.871 638.063,360.75 Z m 2250.277,1421.5 c -127.6,-4.67 -270.77,-143.17 -270.77,-141.62 1.56,79.37 -57.57,155.62 -166.51,138.5 -108.91,-17.12 -245.86,-154.06 -247.41,-154.06 4.67,57.58 -33.52,125.25 -93.37,147.83 -85.43,32.24 -212.15,8.25 -376.06,-173.24 -128.93,-142.76 -456.43,-516.18 -579.78,-656.117 43.66,-25.875 81.86,-59.832 112.65,-100.008 l 391.92,484.325 c 0,0 227.09,297.77 351.68,326.78 103.13,24.01 119.2,-74.6 80.91,-166.51 -77.89,-186.93 -269.21,-497.95 -269.21,-497.95 0,0 267.66,347.01 312.78,404.59 45.13,57.57 270.77,340.79 370.36,241.2 97.06,-97.06 -194.51,-516.63 -194.51,-516.63 l 149.39,192.95 c 0,0 303.44,398.37 435.71,348.57 132.28,-49.79 -85.6,-413.93 -85.6,-412.37 0,0 130.49,99.46 200.75,312.78 32.13,97.55 4.67,225.64 -122.93,220.98" /><path
         id="path342"
         style="fill:#1f262f;fill-opacity:1;fill-rule:nonzero;stroke:none"
         d="m 0.0507813,792.637 c 0,85.75 69.1015187,158.187 172.3442187,158.187 54.121,0 99.914,-19.984 129.882,-50.777 30.813,30.793 75.762,50.777 129.887,50.777 104.082,0 169.856,-72.437 169.856,-158.187 l -0.051,-376.778 h -94.926 l 0.051,362.621 c 0,59.106 -29.957,91.579 -76.582,91.579 -45.809,0 -81.61,-32.473 -81.61,-91.579 l -0.047,-362.621 h -95.742 l 0.047,362.621 c 0,59.106 -35.797,91.579 -82.422,91.579 -45.808,0 -75.781,-32.473 -75.781,-91.579 L 94.9102,415.859 H 0.00390625 L 0.0507813,792.637" /><path
         id="path344"
         style="fill:#1f262f;fill-opacity:1;fill-rule:nonzero;stroke:none"
         d="m 1485.39,500.398 c 54.13,0 97.42,43.274 97.42,97.403 0,54.121 -43.29,97.41 -97.42,97.41 -54.1,0 -97.39,-43.289 -97.39,-97.41 0,-54.129 43.29,-97.403 97.39,-97.403 z m 96.6,441.27 h 95.75 V 601.129 c 0,-105.719 -85.77,-192.309 -192.35,-192.309 -105.73,0 -191.49,86.59 -191.49,192.309 0,106.57 80.77,192.348 184.83,192.348 44.97,0 81.61,-20.817 103.26,-39.149 v 187.34" /><path
         id="path346"
         style="fill:#1f262f;fill-opacity:1;fill-rule:nonzero;stroke:none"
         d="m 1051.74,599.891 c 0,55.371 -37.44,102.531 -98.06,102.531 -60.617,0 -98.02,-47.16 -98.02,-102.531 0,-55.371 37.403,-102.539 98.02,-102.539 60.62,0 98.06,47.168 98.06,102.539 z m 91.3,0 c 0,-104.032 -83.83,-186.352 -189.36,-186.352 -105.528,0 -189.332,82.32 -189.332,186.352 0,104.757 83.804,186.339 189.332,186.339 105.53,0 189.36,-81.582 189.36,-186.339" /><path
         id="path348"
         style="fill:#1f262f;fill-opacity:1;fill-rule:nonzero;stroke:none"
         d="m 2094.85,632.801 c -1.53,30.699 -29.96,71.847 -89.08,71.847 -57.64,0 -83.81,-40.386 -86.8,-71.847 z m 89.79,-31.41 c 0,-6.75 0,-20.2 -0.74,-33.692 h -264.93 c 6.71,-31.418 43.38,-71.84 99.51,-71.84 62.12,0 97.3,35.942 97.3,35.942 l 44.9,-67.371 c 0,0 -56.13,-50.891 -142.2,-50.891 -107.75,0 -190.82,82.32 -190.82,186.352 0,104.039 75.6,186.339 178.11,186.339 97.28,0 178.87,-75.57 178.87,-184.839" /><path
         id="path350"
         style="fill:#1f262f;fill-opacity:1;fill-rule:nonzero;stroke:none"
         d="m 2360.79,941.668 h 93.4 V 415.859 h -93.4 v 525.809" /><path
         id="path352"
         style="fill:#1f262f;fill-opacity:1;fill-rule:nonzero;stroke:none"
         d="m 3181.32,540.762 59.12,-59.883 c 0,0 -50.89,-67.34 -146.68,-67.34 -106.26,0 -190.83,82.32 -190.83,186.352 0,104.757 84.57,186.339 190.83,186.339 95.06,0 145.18,-65.871 145.18,-65.871 l -62.12,-55.371 c 0,0 -29.16,37.434 -83.06,37.434 -60.63,0 -99.52,-47.16 -99.52,-102.531 0,-55.371 38.89,-102.539 99.52,-102.539 60.61,0 87.56,43.41 87.56,43.41" /><path
         id="path354"
         style="fill:#1f262f;fill-opacity:1;fill-rule:nonzero;stroke:none"
         d="m 2653.74,785.938 h 94.17 V 415.859 h -94.17 v 370.079" /><path
         id="path356"
         style="fill:#1f262f;fill-opacity:1;fill-rule:nonzero;stroke:none"
         d="m 3562.5,497.352 c -60.62,0 -98.02,47.168 -98.02,102.539 0,55.371 37.4,102.531 98.02,102.531 60.62,0 98.05,-47.16 98.05,-102.531 0,-55.371 -37.43,-102.539 -98.05,-102.539 z m 98.05,288.586 v -26.176 c -28.53,16.738 -61.96,26.468 -98.05,26.468 -105.53,0 -189.33,-81.582 -189.33,-186.339 0,-104.032 83.8,-186.352 189.33,-186.352 36.09,0 69.52,9.82 98.05,26.652 v -24.57 h 94.16 v 370.317 h -94.16" /></g></g></svg>