<?xml version="1.0" encoding="utf-8"?>
<!-- Generator: Adobe Illustrator 17.0.0, SVG Export Plug-In . SVG Version: 6.00 Build 0)  -->
<!DOCTYPE svg PUBLIC "-//W3C//DTD SVG 1.1//EN" "http://www.w3.org/Graphics/SVG/1.1/DTD/svg11.dtd">
<svg version="1.1" id="Ebene_1" xmlns="http://www.w3.org/2000/svg" xmlns:xlink="http://www.w3.org/1999/xlink" x="0px" y="0px"
	 width="229px" height="131px" viewBox="0 0 229 131" enable-background="new 0 0 229 131" xml:space="preserve">
<g id="Ebene_1_1_">
	<g id="Header">
	</g>
</g>
<g id="logo">
	<path fill="#000F30" d="M120,28v30H32v56l-10-10V48h88V18L120,28z M102,28H22l10,10h70V28z"/>
	<g>
		<path fill="#000F30" d="M64.083,114H61.75V96.277h2.283v1.837h0.074c0.38-0.629,0.938-1.146,1.672-1.552
			c0.734-0.405,1.588-0.607,2.562-0.607c0.875,0,1.671,0.157,2.39,0.472c0.718,0.314,1.337,0.753,1.856,1.315
			c0.521,0.562,0.921,1.221,1.201,1.973c0.281,0.754,0.421,1.561,0.421,2.421s-0.14,1.671-0.421,2.433
			c-0.28,0.761-0.677,1.423-1.188,1.985s-1.131,1.005-1.856,1.328c-0.727,0.322-1.544,0.483-2.451,0.483
			c-0.843,0-1.635-0.182-2.377-0.546c-0.743-0.363-1.329-0.877-1.759-1.539h-0.074L64.083,114L64.083,114z M71.827,102.136
			c0-0.547-0.083-1.076-0.248-1.589s-0.414-0.968-0.744-1.365c-0.332-0.397-0.741-0.711-1.229-0.943
			c-0.488-0.231-1.055-0.348-1.7-0.348c-0.596,0-1.138,0.116-1.626,0.348s-0.905,0.546-1.253,0.943s-0.617,0.853-0.807,1.365
			c-0.19,0.513-0.285,1.051-0.285,1.613s0.095,1.101,0.285,1.613c0.189,0.514,0.459,0.965,0.807,1.353
			c0.348,0.39,0.765,0.7,1.253,0.932s1.03,0.347,1.626,0.347c0.646,0,1.212-0.119,1.7-0.359s0.897-0.559,1.229-0.956
			c0.33-0.396,0.579-0.852,0.744-1.365C71.744,103.211,71.827,102.682,71.827,102.136z"/>
		<path fill="#000F30" d="M78.702,97.593c-0.017-0.496-0.041-0.935-0.074-1.315h2.209c0.033,0.298,0.058,0.642,0.075,1.03
			c0.016,0.389,0.024,0.707,0.024,0.956h0.074c0.331-0.695,0.815-1.254,1.452-1.676s1.353-0.633,2.147-0.633
			c0.363,0,0.67,0.033,0.918,0.099l-0.099,2.16c-0.332-0.083-0.688-0.124-1.067-0.124c-0.563,0-1.052,0.104-1.465,0.31
			c-0.414,0.207-0.757,0.484-1.03,0.832c-0.272,0.348-0.476,0.749-0.608,1.204s-0.198,0.931-0.198,1.427v6.181h-2.333V98.81
			C78.728,98.495,78.719,98.09,78.702,97.593z"/>
		<path fill="#000F30" d="M100.422,102.136c0,0.91-0.161,1.746-0.483,2.507c-0.323,0.761-0.77,1.419-1.341,1.973
			c-0.571,0.555-1.245,0.985-2.023,1.291c-0.777,0.307-1.613,0.459-2.507,0.459s-1.729-0.152-2.507-0.459
			c-0.778-0.306-1.448-0.736-2.011-1.291c-0.562-0.554-1.005-1.212-1.327-1.973c-0.323-0.761-0.484-1.597-0.484-2.507
			s0.161-1.742,0.484-2.495c0.322-0.753,0.765-1.402,1.327-1.948s1.232-0.972,2.011-1.278c0.777-0.306,1.613-0.459,2.507-0.459
			s1.729,0.153,2.507,0.459c0.778,0.307,1.452,0.732,2.023,1.278s1.018,1.195,1.341,1.948
			C100.261,100.394,100.422,101.226,100.422,102.136z M97.989,102.147c0-0.561-0.087-1.097-0.261-1.608
			c-0.175-0.511-0.428-0.961-0.76-1.349s-0.743-0.697-1.232-0.928c-0.49-0.231-1.051-0.347-1.681-0.347
			c-0.632,0-1.191,0.115-1.682,0.347c-0.489,0.23-0.9,0.54-1.232,0.928s-0.585,0.838-0.759,1.349
			c-0.175,0.512-0.262,1.048-0.262,1.608c0,0.562,0.087,1.098,0.262,1.609c0.174,0.512,0.427,0.965,0.759,1.361
			s0.743,0.709,1.232,0.94c0.49,0.23,1.05,0.346,1.682,0.346c0.63,0,1.19-0.115,1.681-0.346c0.489-0.231,0.9-0.545,1.232-0.94
			c0.332-0.396,0.585-0.85,0.76-1.361C97.902,103.245,97.989,102.709,97.989,102.147z"/>
		<path fill="#000F30" d="M111.244,99.256c-0.266-0.43-0.638-0.781-1.117-1.055c-0.48-0.273-1.018-0.409-1.613-0.409
			c-0.265,0-0.53,0.028-0.795,0.087c-0.265,0.058-0.5,0.148-0.707,0.272s-0.372,0.281-0.496,0.472s-0.187,0.427-0.187,0.707
			c0,0.497,0.224,0.865,0.67,1.105c0.447,0.239,1.117,0.459,2.011,0.657c0.562,0.133,1.084,0.29,1.563,0.472
			c0.48,0.183,0.897,0.409,1.254,0.683c0.355,0.273,0.633,0.6,0.831,0.98c0.199,0.381,0.298,0.828,0.298,1.341
			c0,0.694-0.132,1.282-0.396,1.762c-0.265,0.48-0.617,0.873-1.055,1.18c-0.439,0.306-0.939,0.525-1.502,0.657
			c-0.562,0.133-1.142,0.198-1.737,0.198c-0.894,0-1.767-0.173-2.619-0.521s-1.56-0.877-2.122-1.589l1.663-1.415
			c0.314,0.464,0.748,0.853,1.303,1.167s1.162,0.472,1.824,0.472c0.298,0,0.584-0.029,0.856-0.087
			c0.273-0.058,0.521-0.153,0.745-0.286c0.224-0.132,0.4-0.306,0.533-0.521s0.199-0.488,0.199-0.819
			c0-0.546-0.261-0.951-0.782-1.217c-0.521-0.264-1.287-0.513-2.296-0.744c-0.397-0.1-0.799-0.219-1.204-0.36
			c-0.405-0.14-0.773-0.335-1.104-0.583s-0.6-0.559-0.807-0.931s-0.311-0.832-0.311-1.378c0-0.629,0.128-1.17,0.385-1.626
			c0.257-0.454,0.592-0.827,1.006-1.116c0.413-0.29,0.885-0.505,1.414-0.646c0.53-0.141,1.076-0.211,1.639-0.211
			c0.844,0,1.659,0.165,2.445,0.496c0.785,0.331,1.394,0.811,1.824,1.439L111.244,99.256z"/>
		<path fill="#000F30" d="M122.91,98.188h-3.128v6.112c0,0.71,0.132,1.217,0.397,1.522s0.687,0.457,1.266,0.457
			c0.215,0,0.447-0.022,0.695-0.068c0.248-0.045,0.472-0.113,0.67-0.204l0.074,1.911c-0.281,0.1-0.592,0.178-0.931,0.235
			c-0.339,0.059-0.691,0.087-1.055,0.087c-1.109,0-1.957-0.306-2.544-0.918c-0.588-0.612-0.882-1.53-0.882-2.755v-6.38h-2.259
			v-1.911h2.259V92.9h2.309v3.376h3.128v1.912H122.91z"/>
		<path fill="#000F30" d="M137.555,102.061c0,0.133,0,0.266,0,0.397c0,0.133-0.009,0.265-0.025,0.397h-9.357
			c0.017,0.493,0.128,0.957,0.335,1.393s0.484,0.813,0.832,1.134c0.347,0.32,0.748,0.571,1.203,0.752s0.939,0.271,1.452,0.271
			c0.795,0,1.481-0.173,2.061-0.521s1.034-0.77,1.365-1.267l1.638,1.316c-0.629,0.833-1.369,1.447-2.221,1.842
			c-0.853,0.394-1.8,0.59-2.843,0.59c-0.894,0-1.721-0.148-2.482-0.446s-1.414-0.716-1.96-1.254
			c-0.547-0.537-0.978-1.187-1.291-1.948c-0.314-0.761-0.472-1.604-0.472-2.532c0-0.909,0.153-1.749,0.46-2.519
			s0.733-1.428,1.281-1.974c0.547-0.546,1.193-0.972,1.94-1.278c0.746-0.306,1.55-0.459,2.412-0.459s1.646,0.141,2.351,0.422
			s1.302,0.687,1.791,1.216c0.489,0.53,0.867,1.171,1.132,1.924C137.422,100.27,137.555,101.118,137.555,102.061z M135.172,101.118
			c-0.017-0.464-0.096-0.897-0.236-1.304c-0.141-0.405-0.348-0.757-0.62-1.055c-0.273-0.298-0.612-0.534-1.018-0.708
			c-0.406-0.173-0.882-0.26-1.428-0.26c-0.496,0-0.964,0.087-1.402,0.26c-0.438,0.174-0.819,0.41-1.142,0.708
			s-0.588,0.649-0.795,1.055s-0.326,0.84-0.359,1.304H135.172z"/>
		<path fill="#000F30" d="M144.355,114h-2.333V96.277h2.283v1.837h0.074c0.38-0.629,0.938-1.146,1.672-1.552
			c0.734-0.405,1.588-0.607,2.562-0.607c0.875,0,1.671,0.157,2.39,0.472c0.718,0.314,1.337,0.753,1.856,1.315
			c0.521,0.562,0.921,1.221,1.201,1.973c0.281,0.754,0.421,1.561,0.421,2.421s-0.14,1.671-0.421,2.433
			c-0.28,0.761-0.677,1.423-1.188,1.985s-1.131,1.005-1.856,1.328c-0.727,0.322-1.544,0.483-2.451,0.483
			c-0.843,0-1.635-0.182-2.377-0.546c-0.743-0.363-1.329-0.877-1.759-1.539h-0.074V114z M152.1,102.136
			c0-0.547-0.083-1.076-0.248-1.589s-0.414-0.968-0.744-1.365c-0.332-0.397-0.741-0.711-1.229-0.943
			c-0.488-0.231-1.055-0.348-1.7-0.348c-0.596,0-1.138,0.116-1.626,0.348s-0.905,0.546-1.253,0.943s-0.617,0.853-0.807,1.365
			c-0.19,0.513-0.285,1.051-0.285,1.613s0.095,1.101,0.285,1.613c0.189,0.514,0.459,0.965,0.807,1.353
			c0.348,0.39,0.765,0.7,1.253,0.932s1.03,0.347,1.626,0.347c0.646,0,1.212-0.119,1.7-0.359s0.897-0.559,1.229-0.956
			c0.33-0.396,0.579-0.852,0.744-1.365C152.017,103.211,152.1,102.682,152.1,102.136z"/>
	</g>
	<g>
		<path fill="#000F30" d="M168,96h2v12h-2V96z"/>
		<path fill="#000F30" d="M173.25,95.997h2.404l3.391,9.225h0.068l3.292-9.225h2.318L179.948,108h-1.858L173.25,95.997z"/>
		<path fill="#000F30" d="M188,96h2v12h-2V96z"/>
		<path fill="#000F30" d="M194,96h3.878c0.693,0,1.318-0.006,1.875,0.119s1.034,0.33,1.432,0.614
			c0.398,0.284,0.705,0.648,0.92,1.091c0.216,0.443,0.324,0.978,0.324,1.602c0,0.671-0.125,1.233-0.375,1.688
			s-0.588,0.821-1.015,1.1c-0.426,0.279-0.923,0.48-1.492,0.605c-0.568,0.125-1.17,0.188-1.807,0.188H196V108h-2V96L194,96z
			 M197.588,101.198c0.352,0,0.687-0.026,1.005-0.077s0.603-0.142,0.853-0.273c0.25-0.131,0.449-0.31,0.597-0.537
			c0.147-0.227,0.222-0.523,0.222-0.886c0-0.352-0.074-0.639-0.222-0.861s-0.344-0.395-0.588-0.52s-0.522-0.207-0.835-0.247
			s-0.634-0.06-0.963-0.06h-1.654v3.461C196.003,101.198,197.588,101.198,197.588,101.198z"/>
	</g>
</g>
<g id="styles">
</g>
</svg>
