<?xml version="1.0" encoding="UTF-8"?>
<!DOCTYPE svg PUBLIC "-//W3C//DTD SVG 1.1//EN" "http://www.w3.org/Graphics/SVG/1.1/DTD/svg11.dtd">
<svg xmlns="http://www.w3.org/2000/svg" xmlns:xlink="http://www.w3.org/1999/xlink" version="1.1" width="813px" height="571px" viewBox="-0.5 -0.5 813 571"><defs/><g><rect x="340" y="0" width="130" height="40" fill="rgb(255, 255, 255)" stroke="rgb(0, 0, 0)" pointer-events="all"/><path d="M 405 40 L 405 570" fill="none" stroke="rgb(0, 0, 0)" stroke-miterlimit="10" stroke-dasharray="3 3" pointer-events="all"/><g fill="rgb(0, 0, 0)" font-family="Helvetica" text-anchor="middle" font-size="12px"><text x="404.5" y="24.5">:Bus Simulation</text></g><rect x="400" y="80" width="10" height="480" fill="rgb(255, 255, 255)" stroke="rgb(0, 0, 0)" pointer-events="all"/><rect x="406" y="190" width="10" height="40" fill="rgb(255, 255, 255)" stroke="rgb(0, 0, 0)" pointer-events="all"/><rect x="406" y="270" width="10" height="40" fill="rgb(255, 255, 255)" stroke="rgb(0, 0, 0)" pointer-events="all"/><path d="M 420 270 L 430 270 Q 440 270 440 280 L 440 300 Q 440 310 434.06 310 L 428.12 310" fill="none" stroke="rgb(0, 0, 0)" stroke-miterlimit="10" pointer-events="stroke"/><path d="M 421.12 310 L 428.12 306.5 L 428.12 313.5 Z" fill="rgb(0, 0, 0)" stroke="rgb(0, 0, 0)" stroke-miterlimit="10" pointer-events="all"/><g fill="rgb(0, 0, 0)" font-family="Helvetica" text-anchor="middle" font-size="11px"><rect fill="rgb(255, 255, 255)" stroke="none" x="448" y="280" width="111" height="27" stroke-width="0"/><text x="502.5" y="289.5">Compute transmission </text><text x="502.5" y="302.5">time (ID = 15)</text></g><rect x="177" y="0" width="127" height="40" fill="rgb(255, 255, 255)" stroke="rgb(0, 0, 0)" pointer-events="all"/><path d="M 240.5 40 L 240.5 570" fill="none" stroke="rgb(0, 0, 0)" stroke-miterlimit="10" stroke-dasharray="3 3" pointer-events="all"/><g fill="rgb(0, 0, 0)" font-family="Helvetica" text-anchor="middle" font-size="12px"><text x="240" y="24.5">:FMU 1</text></g><rect x="235" y="80" width="10" height="480" fill="rgb(255, 255, 255)" stroke="rgb(0, 0, 0)" pointer-events="all"/><rect x="578" y="0" width="100" height="40" fill="rgb(255, 255, 255)" stroke="rgb(0, 0, 0)" pointer-events="all"/><path d="M 628 40 L 628 570" fill="none" stroke="rgb(0, 0, 0)" stroke-miterlimit="10" stroke-dasharray="3 3" pointer-events="all"/><g fill="rgb(0, 0, 0)" font-family="Helvetica" text-anchor="middle" font-size="12px"><text x="627.5" y="24.5">:FMU 2</text></g><rect x="623" y="80" width="10" height="480" fill="rgb(255, 255, 255)" stroke="rgb(0, 0, 0)" pointer-events="all"/><path d="M 420 190 L 430 190 Q 440 190 440 200 L 440 220 Q 440 230 434.06 230 L 428.12 230" fill="none" stroke="rgb(0, 0, 0)" stroke-miterlimit="10" pointer-events="stroke"/><path d="M 421.12 230 L 428.12 226.5 L 428.12 233.5 Z" fill="rgb(0, 0, 0)" stroke="rgb(0, 0, 0)" stroke-miterlimit="10" pointer-events="all"/><g fill="rgb(0, 0, 0)" font-family="Helvetica" text-anchor="middle" font-size="11px"><rect fill="rgb(255, 255, 255)" stroke="none" x="448" y="204" width="140" height="14" stroke-width="0"/><text x="516.5" y="213.5">Arbitration (ID = 15, ID = 16)</text></g><path d="M 247.4 98.72 L 392.88 98.99" fill="none" stroke="rgb(0, 0, 0)" stroke-miterlimit="10" pointer-events="stroke"/><path d="M 399.88 99 L 392.88 102.49 L 392.89 95.49 Z" fill="rgb(0, 0, 0)" stroke="rgb(0, 0, 0)" stroke-miterlimit="10" pointer-events="all"/><g fill="rgb(0, 0, 0)" font-family="Helvetica" text-anchor="middle" font-size="11px"><rect fill="rgb(255, 255, 255)" stroke="none" x="279" y="83" width="91" height="14" stroke-width="0"/><text x="323.57" y="93.36">Transmit (ID = 15)</text></g><path d="M 623.2 147.56 L 418.12 147.98" fill="none" stroke="rgb(0, 0, 0)" stroke-miterlimit="10" pointer-events="stroke"/><path d="M 411.12 148 L 418.11 144.48 L 418.13 151.48 Z" fill="rgb(0, 0, 0)" stroke="rgb(0, 0, 0)" stroke-miterlimit="10" pointer-events="all"/><g fill="rgb(0, 0, 0)" font-family="Helvetica" text-anchor="middle" font-size="11px"><rect fill="rgb(255, 255, 255)" stroke="none" x="472" y="132" width="91" height="14" stroke-width="0"/><text x="516.03" y="142.28">Transmit (ID = 16)</text></g><rect x="712" y="0" width="100" height="40" fill="rgb(255, 255, 255)" stroke="rgb(0, 0, 0)" pointer-events="all"/><path d="M 762 40 L 762 570" fill="none" stroke="rgb(0, 0, 0)" stroke-miterlimit="10" stroke-dasharray="3 3" pointer-events="all"/><g fill="rgb(0, 0, 0)" font-family="Helvetica" text-anchor="middle" font-size="12px"><text x="761.5" y="24.5">:FMU 3</text></g><rect x="757" y="80" width="10" height="480" fill="rgb(255, 255, 255)" stroke="rgb(0, 0, 0)" pointer-events="all"/><path d="M 409.5 488 L 747.56 487.83" fill="none" stroke="rgb(0, 0, 0)" stroke-miterlimit="10" pointer-events="stroke"/><path d="M 754.56 487.83 L 747.56 491.33 L 747.56 484.33 Z" fill="rgb(0, 0, 0)" stroke="rgb(0, 0, 0)" stroke-miterlimit="10" pointer-events="all"/><g fill="rgb(0, 0, 0)" font-family="Helvetica" text-anchor="middle" font-size="11px"><rect fill="rgb(255, 255, 255)" stroke="none" x="468" y="472" width="91" height="14" stroke-width="0"/><text x="512.67" y="482.45">Transmit (ID = 15)</text></g><rect x="68" y="70" width="17" height="260" fill="none" stroke="none" pointer-events="all"/><path d="M 85 70 L 76.5 70 L 76.5 330 L 85 330" fill="none" stroke="rgb(0, 0, 0)" stroke-width="2" stroke-miterlimit="10" pointer-events="all"/><path d="M 68 200 L 76.5 200" fill="none" stroke="rgb(0, 0, 0)" stroke-width="2" stroke-miterlimit="10" pointer-events="all"/><rect x="68" y="370" width="17" height="190" fill="none" stroke="none" pointer-events="all"/><path d="M 85 370 L 76.5 370 L 76.5 560 L 85 560" fill="none" stroke="rgb(0, 0, 0)" stroke-width="2" stroke-miterlimit="10" pointer-events="all"/><path d="M 68 465 L 76.5 465" fill="none" stroke="rgb(0, 0, 0)" stroke-width="2" stroke-miterlimit="10" pointer-events="all"/><path d="M 410 392 L 611.88 392" fill="none" stroke="rgb(0, 0, 0)" stroke-miterlimit="10" pointer-events="stroke"/><path d="M 618.88 392 L 611.88 395.5 L 611.88 388.5 Z" fill="rgb(0, 0, 0)" stroke="rgb(0, 0, 0)" stroke-miterlimit="10" pointer-events="all"/><g fill="rgb(0, 0, 0)" font-family="Helvetica" text-anchor="middle" font-size="11px"><rect fill="rgb(255, 255, 255)" stroke="none" x="455" y="377" width="122" height="14" stroke-width="0"/><text x="514.5" y="386.5">Arbitration Lost (ID = 16)</text></g><rect x="0" y="451" width="80" height="26" fill="none" stroke="none" pointer-events="all"/><g fill="rgb(0, 0, 0)" font-family="Helvetica" font-size="11px"><text x="4.5" y="468">Event Mode</text></g><path d="M 410 444 L 611.88 444.12" fill="none" stroke="rgb(0, 0, 0)" stroke-miterlimit="10" pointer-events="stroke"/><path d="M 618.88 444.12 L 611.88 447.62 L 611.88 440.62 Z" fill="rgb(0, 0, 0)" stroke="rgb(0, 0, 0)" stroke-miterlimit="10" pointer-events="all"/><g fill="rgb(0, 0, 0)" font-family="Helvetica" text-anchor="middle" font-size="11px"><rect fill="rgb(255, 255, 255)" stroke="none" x="468" y="429" width="91" height="14" stroke-width="0"/><text x="512.5" y="438.56">Transmit (ID = 15)</text></g><path d="M 400 532 L 258.32 532.6" fill="none" stroke="rgb(0, 0, 0)" stroke-miterlimit="10" pointer-events="stroke"/><path d="M 249.32 532.64 L 258.3 528.1 L 258.34 537.1 Z" fill="rgb(0, 0, 0)" stroke="rgb(0, 0, 0)" stroke-miterlimit="10" pointer-events="all"/><g fill="rgb(0, 0, 0)" font-family="Helvetica" text-anchor="middle" font-size="11px"><rect fill="rgb(255, 255, 255)" stroke="none" x="283" y="517" width="84" height="14" stroke-width="0"/><text x="323.5" y="526.82">Confirm(ID = 15)</text></g><path d="M 174 80 L 169 80 Q 164 80 164 90 L 164 190 Q 164 200 159 200 L 156.5 200 Q 154 200 159 200 L 161.5 200 Q 164 200 164 210 L 164 310 Q 164 320 169 320 L 174 320" fill="none" stroke="rgb(0, 0, 0)" stroke-width="2" stroke-miterlimit="10" pointer-events="all"/><path d="M 174 424 L 169 424 Q 164 424 164 434 L 164 454 Q 164 464 159 464 L 156.5 464 Q 154 464 159 464 L 161.5 464 Q 164 464 164 474 L 164 494 Q 164 504 169 504 L 174 504" fill="none" stroke="rgb(0, 0, 0)" stroke-width="2" stroke-miterlimit="10" pointer-events="all"/><rect x="80" y="188" width="80" height="26" fill="none" stroke="none" pointer-events="all"/><g fill="rgb(0, 0, 0)" font-family="Helvetica" text-anchor="middle" font-size="11px"><text x="119.5" y="192">Super-dense</text><text x="119.5" y="205">time iteration</text><text x="119.5" y="218">(t, 1)</text></g><rect x="80" y="451" width="80" height="26" fill="none" stroke="none" pointer-events="all"/><g fill="rgb(0, 0, 0)" font-family="Helvetica" text-anchor="middle" font-size="11px"><text x="119.5" y="455">Super-dense</text><text x="119.5" y="468">time iteration</text><text x="119.5" y="481">(t, 2)</text></g><rect x="0" y="186" width="80" height="26" fill="none" stroke="none" pointer-events="all"/><g fill="rgb(0, 0, 0)" font-family="Helvetica" font-size="11px"><text x="4.5" y="203">Event Mode</text></g><rect x="68" y="340" width="17" height="20" fill="none" stroke="none" pointer-events="all"/><path d="M 85 340 L 76.5 340 L 76.5 360 L 85 360" fill="none" stroke="rgb(0, 0, 0)" stroke-width="2" stroke-miterlimit="10" pointer-events="all"/><path d="M 68 350 L 76.5 350" fill="none" stroke="rgb(0, 0, 0)" stroke-width="2" stroke-miterlimit="10" pointer-events="all"/><rect x="0" y="337" width="80" height="26" fill="none" stroke="none" pointer-events="all"/><g fill="rgb(0, 0, 0)" font-family="Helvetica" font-size="11px"><text x="4.5" y="354">Step Mode</text></g><path d="M 174 511 L 169 511 Q 164 511 164 521 L 164 526 Q 164 531 159 531 L 156.5 531 Q 154 531 159 531 L 161.5 531 Q 164 531 164 541 L 164 546 Q 164 551 169 551 L 174 551" fill="none" stroke="rgb(0, 0, 0)" stroke-width="2" stroke-miterlimit="10" pointer-events="all"/><rect x="81" y="518" width="80" height="26" fill="none" stroke="none" pointer-events="all"/><g fill="rgb(0, 0, 0)" font-family="Helvetica" text-anchor="middle" font-size="11px"><text x="120.5" y="522">Super-dense</text><text x="120.5" y="535">time iteration</text><text x="120.5" y="548">(t, 3)</text></g><path d="M 174 378 L 169 378 Q 164 378 164 388 L 164 393 Q 164 398 159 398 L 156.5 398 Q 154 398 159 398 L 161.5 398 Q 164 398 164 408 L 164 413 Q 164 418 169 418 L 174 418" fill="none" stroke="rgb(0, 0, 0)" stroke-width="2" stroke-miterlimit="10" pointer-events="all"/><rect x="81" y="385" width="80" height="26" fill="none" stroke="none" pointer-events="all"/><g fill="rgb(0, 0, 0)" font-family="Helvetica" text-anchor="middle" font-size="11px"><text x="120.5" y="389">Super-dense</text><text x="120.5" y="402">time iteration</text><text x="120.5" y="415">(t, 1)</text></g></g></svg>