<?xml version="1.0" encoding="UTF-8"?>
<!DOCTYPE svg PUBLIC "-//W3C//DTD SVG 1.1//EN" "http://www.w3.org/Graphics/SVG/1.1/DTD/svg11.dtd">
<svg xmlns="http://www.w3.org/2000/svg" xmlns:xlink="http://www.w3.org/1999/xlink" version="1.1" width="515px" height="292px" viewBox="-0.5 -0.5 515 292"><defs/><g><rect x="0" y="0" width="100" height="40" fill="rgb(255, 255, 255)" stroke="rgb(0, 0, 0)" pointer-events="all"/><path d="M 50 40 L 50 290" fill="none" stroke="rgb(0, 0, 0)" stroke-miterlimit="10" stroke-dasharray="3 3" pointer-events="all"/><g fill="rgb(0, 0, 0)" font-family="Helvetica" text-anchor="middle" font-size="12px"><text x="49.5" y="24.5">:FMU 1</text></g><rect x="45" y="65" width="10" height="215" fill="rgb(255, 255, 255)" stroke="rgb(0, 0, 0)" pointer-events="all"/><rect x="190" y="0" width="130" height="40" fill="rgb(255, 255, 255)" stroke="rgb(0, 0, 0)" pointer-events="all"/><path d="M 255 40 L 255 290" fill="none" stroke="rgb(0, 0, 0)" stroke-miterlimit="10" stroke-dasharray="3 3" pointer-events="all"/><g fill="rgb(0, 0, 0)" font-family="Helvetica" text-anchor="middle" font-size="12px"><text x="254.5" y="24.5">:Bus Simulation</text></g><rect x="250" y="65" width="10" height="215" fill="rgb(255, 255, 255)" stroke="rgb(0, 0, 0)" pointer-events="all"/><path d="M 260 121 L 449.34 121.11" fill="none" stroke="rgb(0, 0, 0)" stroke-miterlimit="10" pointer-events="stroke"/><path d="M 456.34 121.11 L 449.34 124.61 L 449.34 117.61 Z" fill="rgb(0, 0, 0)" stroke="rgb(0, 0, 0)" stroke-miterlimit="10" pointer-events="all"/><g fill="rgb(0, 0, 0)" font-family="Helvetica" text-anchor="middle" font-size="11px"><rect fill="rgb(255, 255, 255)" stroke="none" x="337" y="106" width="44" height="14" stroke-width="0"/><text x="358.07" y="115.56">Transmit</text></g><path d="M 461.5 179.36 L 269.12 179.36" fill="none" stroke="rgb(0, 0, 0)" stroke-miterlimit="10" pointer-events="stroke"/><path d="M 262.12 179.36 L 269.12 175.86 L 269.12 182.86 Z" fill="rgb(0, 0, 0)" stroke="rgb(0, 0, 0)" stroke-miterlimit="10" pointer-events="all"/><g fill="rgb(0, 0, 0)" font-family="Helvetica" text-anchor="middle" font-size="11px"><rect fill="rgb(255, 255, 255)" stroke="none" x="340" y="164" width="44" height="14" stroke-width="0"/><text x="360.52" y="173.86">Transmit</text></g><path d="M 259.55 231.23 L 449.27 231.64" fill="none" stroke="rgb(0, 0, 0)" stroke-miterlimit="10" pointer-events="stroke"/><path d="M 456.27 231.66 L 449.26 235.14 L 449.28 228.14 Z" fill="rgb(0, 0, 0)" stroke="rgb(0, 0, 0)" stroke-miterlimit="10" pointer-events="all"/><g fill="rgb(0, 0, 0)" font-family="Helvetica" text-anchor="middle" font-size="8px"><rect fill="rgb(255, 255, 255)" stroke="none" x="276" y="210" width="159" height="20" stroke-width="0"/><text x="354.6" y="215.95">Bus Error(Is Sender = TRUE,</text><text x="354.6" y="225.95">Error Flag = SECONDARY_ERROR_FLAG)</text></g><path d="M 64.16 261.22 L 250 261" fill="none" stroke="rgb(0, 0, 0)" stroke-miterlimit="10" pointer-events="stroke"/><path d="M 57.16 261.22 L 64.15 257.72 L 64.16 264.72 Z" fill="rgb(0, 0, 0)" stroke="rgb(0, 0, 0)" stroke-miterlimit="10" pointer-events="all"/><g fill="rgb(0, 0, 0)" font-family="Helvetica" text-anchor="middle" font-size="8px"><rect fill="rgb(255, 255, 255)" stroke="none" x="85" y="240" width="144" height="20" stroke-width="0"/><text x="156.18" y="245.61">Bus Error(Is Sender = FALSE,</text><text x="156.18" y="255.61">Error Flag = PRIMARY_ERROR_FLAG)</text></g><rect x="414" y="0" width="100" height="40" fill="rgb(255, 255, 255)" stroke="rgb(0, 0, 0)" pointer-events="all"/><path d="M 464 40 L 464 290" fill="none" stroke="rgb(0, 0, 0)" stroke-miterlimit="10" stroke-dasharray="3 3" pointer-events="all"/><g fill="rgb(0, 0, 0)" font-family="Helvetica" text-anchor="middle" font-size="12px"><text x="463.5" y="24.5">:FMU 2</text></g><rect x="459" y="65" width="10" height="215" fill="rgb(255, 255, 255)" stroke="rgb(0, 0, 0)" pointer-events="all"/><path d="M 56.04 87.58 L 240.99 87.99" fill="none" stroke="rgb(0, 0, 0)" stroke-miterlimit="10" pointer-events="stroke"/><path d="M 247.99 88 L 240.98 91.49 L 241 84.49 Z" fill="rgb(0, 0, 0)" stroke="rgb(0, 0, 0)" stroke-miterlimit="10" pointer-events="all"/><g fill="rgb(0, 0, 0)" font-family="Helvetica" text-anchor="middle" font-size="11px"><rect fill="rgb(255, 255, 255)" stroke="none" x="131" y="72" width="44" height="14" stroke-width="0"/><text x="152.21" y="82.29">Transmit</text></g><path d="M 250.26 147.98 L 64 148.39" fill="none" stroke="rgb(0, 0, 0)" stroke-miterlimit="10" pointer-events="stroke"/><path d="M 57 148.41 L 63.99 144.89 L 64.01 151.89 Z" fill="rgb(0, 0, 0)" stroke="rgb(0, 0, 0)" stroke-miterlimit="10" pointer-events="all"/><g fill="rgb(0, 0, 0)" font-family="Helvetica" text-anchor="middle" font-size="11px"><rect fill="rgb(255, 255, 255)" stroke="none" x="133" y="133" width="41" height="14" stroke-width="0"/><text x="152.62" y="142.69">Confirm</text></g></g></svg>