<?xml version="1.0" encoding="UTF-8"?>
<!DOCTYPE svg PUBLIC "-//W3C//DTD SVG 1.1//EN" "http://www.w3.org/Graphics/SVG/1.1/DTD/svg11.dtd">
<svg xmlns="http://www.w3.org/2000/svg" xmlns:xlink="http://www.w3.org/1999/xlink" version="1.1" width="813px" height="801px" viewBox="-0.5 -0.5 813 801"><defs/><g><rect x="340" y="0" width="130" height="40" fill="rgb(255, 255, 255)" stroke="rgb(0, 0, 0)" pointer-events="all"/><path d="M 405 40 L 405 800" fill="none" stroke="rgb(0, 0, 0)" stroke-miterlimit="10" stroke-dasharray="3 3" pointer-events="all"/><g fill="rgb(0, 0, 0)" font-family="Helvetica" text-anchor="middle" font-size="12px"><text x="404.5" y="24.5">:Bus Simulation</text></g><rect x="400" y="80" width="10" height="710" fill="rgb(255, 255, 255)" stroke="rgb(0, 0, 0)" pointer-events="all"/><rect x="406" y="190" width="10" height="40" fill="rgb(255, 255, 255)" stroke="rgb(0, 0, 0)" pointer-events="all"/><rect x="406" y="270" width="10" height="40" fill="rgb(255, 255, 255)" stroke="rgb(0, 0, 0)" pointer-events="all"/><path d="M 420 270 L 430 270 Q 440 270 440 280 L 440 300 Q 440 310 434.06 310 L 428.12 310" fill="none" stroke="rgb(0, 0, 0)" stroke-miterlimit="10" pointer-events="stroke"/><path d="M 421.12 310 L 428.12 306.5 L 428.12 313.5 Z" fill="rgb(0, 0, 0)" stroke="rgb(0, 0, 0)" stroke-miterlimit="10" pointer-events="all"/><g fill="rgb(0, 0, 0)" font-family="Helvetica" text-anchor="middle" font-size="11px"><rect fill="rgb(255, 255, 255)" stroke="none" x="448" y="279" width="111" height="27" stroke-width="0"/><text x="502.5" y="288.5">Compute transmission</text><text x="502.5" y="301.5">time (ID = 15)</text></g><rect x="177" y="0" width="100" height="40" fill="rgb(255, 255, 255)" stroke="rgb(0, 0, 0)" pointer-events="all"/><path d="M 227 40 L 227 800" fill="none" stroke="rgb(0, 0, 0)" stroke-miterlimit="10" stroke-dasharray="3 3" pointer-events="all"/><g fill="rgb(0, 0, 0)" font-family="Helvetica" text-anchor="middle" font-size="12px"><text x="226.5" y="24.5">:FMU 1</text></g><rect x="222" y="80" width="10" height="710" fill="rgb(255, 255, 255)" stroke="rgb(0, 0, 0)" pointer-events="all"/><rect x="578" y="0" width="100" height="40" fill="rgb(255, 255, 255)" stroke="rgb(0, 0, 0)" pointer-events="all"/><path d="M 628 40 L 628 800" fill="none" stroke="rgb(0, 0, 0)" stroke-miterlimit="10" stroke-dasharray="3 3" pointer-events="all"/><g fill="rgb(0, 0, 0)" font-family="Helvetica" text-anchor="middle" font-size="12px"><text x="627.5" y="24.5">:FMU 2</text></g><rect x="623" y="80" width="10" height="710" fill="rgb(255, 255, 255)" stroke="rgb(0, 0, 0)" pointer-events="all"/><path d="M 420 190 L 430 190 Q 440 190 440 200 L 440 220 Q 440 230 434.06 230 L 428.12 230" fill="none" stroke="rgb(0, 0, 0)" stroke-miterlimit="10" pointer-events="stroke"/><path d="M 421.12 230 L 428.12 226.5 L 428.12 233.5 Z" fill="rgb(0, 0, 0)" stroke="rgb(0, 0, 0)" stroke-miterlimit="10" pointer-events="all"/><g fill="rgb(0, 0, 0)" font-family="Helvetica" text-anchor="middle" font-size="11px"><rect fill="rgb(255, 255, 255)" stroke="none" x="448" y="205" width="140" height="14" stroke-width="0"/><text x="517" y="214.5">Arbitration (ID = 15, ID = 16)</text></g><path d="M 233 99 L 392.88 99" fill="none" stroke="rgb(0, 0, 0)" stroke-miterlimit="10" pointer-events="stroke"/><path d="M 399.88 99 L 392.88 102.5 L 392.88 95.5 Z" fill="rgb(0, 0, 0)" stroke="rgb(0, 0, 0)" stroke-miterlimit="10" pointer-events="all"/><g fill="rgb(0, 0, 0)" font-family="Helvetica" text-anchor="middle" font-size="11px"><rect fill="rgb(255, 255, 255)" stroke="none" x="272" y="84" width="91" height="14" stroke-width="0"/><text x="316.39" y="93.5">Transmit (ID = 15)</text></g><path d="M 623.2 147.56 L 418.12 147.98" fill="none" stroke="rgb(0, 0, 0)" stroke-miterlimit="10" pointer-events="stroke"/><path d="M 411.12 148 L 418.11 144.48 L 418.13 151.48 Z" fill="rgb(0, 0, 0)" stroke="rgb(0, 0, 0)" stroke-miterlimit="10" pointer-events="all"/><g fill="rgb(0, 0, 0)" font-family="Helvetica" text-anchor="middle" font-size="11px"><rect fill="rgb(255, 255, 255)" stroke="none" x="472" y="132" width="91" height="14" stroke-width="0"/><text x="516.03" y="142.28">Transmit (ID = 16)</text></g><rect x="712" y="0" width="100" height="40" fill="rgb(255, 255, 255)" stroke="rgb(0, 0, 0)" pointer-events="all"/><path d="M 762 40 L 762 800" fill="none" stroke="rgb(0, 0, 0)" stroke-miterlimit="10" stroke-dasharray="3 3" pointer-events="all"/><g fill="rgb(0, 0, 0)" font-family="Helvetica" text-anchor="middle" font-size="12px"><text x="761.5" y="24.5">:FMU 3</text></g><rect x="757" y="80" width="10" height="710" fill="rgb(255, 255, 255)" stroke="rgb(0, 0, 0)" pointer-events="all"/><path d="M 409.5 444 L 747.56 443.83" fill="none" stroke="rgb(0, 0, 0)" stroke-miterlimit="10" pointer-events="stroke"/><path d="M 754.56 443.83 L 747.56 447.33 L 747.56 440.33 Z" fill="rgb(0, 0, 0)" stroke="rgb(0, 0, 0)" stroke-miterlimit="10" pointer-events="all"/><g fill="rgb(0, 0, 0)" font-family="Helvetica" text-anchor="middle" font-size="11px"><rect fill="rgb(255, 255, 255)" stroke="none" x="468" y="428" width="91" height="14" stroke-width="0"/><text x="512.61" y="438.45">Transmit (ID = 15)</text></g><rect x="68" y="70" width="17" height="260" fill="none" stroke="none" pointer-events="all"/><path d="M 85 70 L 76.5 70 L 76.5 330 L 85 330" fill="none" stroke="rgb(0, 0, 0)" stroke-width="2" stroke-miterlimit="10" pointer-events="all"/><path d="M 68 200 L 76.5 200" fill="none" stroke="rgb(0, 0, 0)" stroke-width="2" stroke-miterlimit="10" pointer-events="all"/><rect x="68" y="370" width="17" height="220" fill="none" stroke="none" pointer-events="all"/><path d="M 85 370 L 76.5 370 L 76.5 590 L 85 590" fill="none" stroke="rgb(0, 0, 0)" stroke-width="2" stroke-miterlimit="10" pointer-events="all"/><path d="M 68 480 L 76.5 480" fill="none" stroke="rgb(0, 0, 0)" stroke-width="2" stroke-miterlimit="10" pointer-events="all"/><rect x="0" y="466" width="80" height="26" fill="none" stroke="none" pointer-events="all"/><g fill="rgb(0, 0, 0)" font-family="Helvetica" font-size="11px"><text x="4.5" y="483">Event Mode</text></g><path d="M 410 400 L 611.88 400.12" fill="none" stroke="rgb(0, 0, 0)" stroke-miterlimit="10" pointer-events="stroke"/><path d="M 618.88 400.12 L 611.88 403.62 L 611.88 396.62 Z" fill="rgb(0, 0, 0)" stroke="rgb(0, 0, 0)" stroke-miterlimit="10" pointer-events="all"/><g fill="rgb(0, 0, 0)" font-family="Helvetica" text-anchor="middle" font-size="11px"><rect fill="rgb(255, 255, 255)" stroke="none" x="468" y="385" width="91" height="14" stroke-width="0"/><text x="512.56" y="394.56">Transmit (ID = 15)</text></g><path d="M 400 487 L 243.12 487" fill="none" stroke="rgb(0, 0, 0)" stroke-miterlimit="10" pointer-events="stroke"/><path d="M 234.12 487 L 243.12 482.5 L 243.12 491.5 Z" fill="rgb(0, 0, 0)" stroke="rgb(0, 0, 0)" stroke-miterlimit="10" pointer-events="all"/><g fill="rgb(0, 0, 0)" font-family="Helvetica" text-anchor="middle" font-size="11px"><rect fill="rgb(255, 255, 255)" stroke="none" x="275" y="471" width="84" height="14" stroke-width="0"/><text x="315.89" y="481.5">Confirm(ID = 15)</text></g><path d="M 174 80 L 169 80 Q 164 80 164 90 L 164 190 Q 164 200 159 200 L 156.5 200 Q 154 200 159 200 L 161.5 200 Q 164 200 164 210 L 164 310 Q 164 320 169 320 L 174 320" fill="none" stroke="rgb(0, 0, 0)" stroke-width="2" stroke-miterlimit="10" pointer-events="all"/><path d="M 174 380 L 169 380 Q 164 380 164 390 L 164 410 Q 164 420 159 420 L 156.5 420 Q 154 420 159 420 L 161.5 420 Q 164 420 164 430 L 164 450 Q 164 460 169 460 L 174 460" fill="none" stroke="rgb(0, 0, 0)" stroke-width="2" stroke-miterlimit="10" pointer-events="all"/><rect x="80" y="188" width="80" height="26" fill="none" stroke="none" pointer-events="all"/><g fill="rgb(0, 0, 0)" font-family="Helvetica" text-anchor="middle" font-size="11px"><text x="119.5" y="192">Super-dense</text><text x="119.5" y="205">time iteration</text><text x="119.5" y="218">(t, 1)</text></g><rect x="80" y="407" width="80" height="26" fill="none" stroke="none" pointer-events="all"/><g fill="rgb(0, 0, 0)" font-family="Helvetica" text-anchor="middle" font-size="11px"><text x="119.5" y="411">Super-dense</text><text x="119.5" y="424">time iteration</text><text x="119.5" y="437">(t, 1)</text></g><rect x="0" y="187" width="80" height="26" fill="none" stroke="none" pointer-events="all"/><g fill="rgb(0, 0, 0)" font-family="Helvetica" font-size="11px"><text x="4.5" y="204">Event Mode</text></g><rect x="68" y="340" width="17" height="20" fill="none" stroke="none" pointer-events="all"/><path d="M 85 340 L 76.5 340 L 76.5 360 L 85 360" fill="none" stroke="rgb(0, 0, 0)" stroke-width="2" stroke-miterlimit="10" pointer-events="all"/><path d="M 68 350 L 76.5 350" fill="none" stroke="rgb(0, 0, 0)" stroke-width="2" stroke-miterlimit="10" pointer-events="all"/><rect x="0" y="337" width="80" height="26" fill="none" stroke="none" pointer-events="all"/><g fill="rgb(0, 0, 0)" font-family="Helvetica" font-size="11px"><text x="4.5" y="354">Step Mode</text></g><path d="M 174 466 L 169 466 Q 164 466 164 476 L 164 513 Q 164 523 159 523 L 156.5 523 Q 154 523 159 523 L 161.5 523 Q 164 523 164 533 L 164 570 Q 164 580 169 580 L 174 580" fill="none" stroke="rgb(0, 0, 0)" stroke-width="2" stroke-miterlimit="10" pointer-events="all"/><rect x="81" y="510" width="80" height="26" fill="none" stroke="none" pointer-events="all"/><g fill="rgb(0, 0, 0)" font-family="Helvetica" text-anchor="middle" font-size="11px"><text x="120.5" y="514">Super-dense</text><text x="120.5" y="527">time iteration</text><text x="120.5" y="540">(t, 2)</text></g><rect x="68" y="598" width="17" height="20" fill="none" stroke="none" pointer-events="all"/><path d="M 85 598 L 76.5 598 L 76.5 618 L 85 618" fill="none" stroke="rgb(0, 0, 0)" stroke-width="2" stroke-miterlimit="10" pointer-events="all"/><path d="M 68 608 L 76.5 608" fill="none" stroke="rgb(0, 0, 0)" stroke-width="2" stroke-miterlimit="10" pointer-events="all"/><rect x="0" y="595" width="80" height="26" fill="none" stroke="none" pointer-events="all"/><g fill="rgb(0, 0, 0)" font-family="Helvetica" font-size="11px"><text x="4.5" y="612">Step Mode</text></g><rect x="406" y="527" width="10" height="40" fill="rgb(255, 255, 255)" stroke="rgb(0, 0, 0)" pointer-events="all"/><path d="M 420 527 L 430 527 Q 440 527 440 537 L 440 557 Q 440 567 434.06 567 L 428.12 567" fill="none" stroke="rgb(0, 0, 0)" stroke-miterlimit="10" pointer-events="stroke"/><path d="M 421.12 567 L 428.12 563.5 L 428.12 570.5 Z" fill="rgb(0, 0, 0)" stroke="rgb(0, 0, 0)" stroke-miterlimit="10" pointer-events="all"/><g fill="rgb(0, 0, 0)" font-family="Helvetica" text-anchor="middle" font-size="11px"><rect fill="rgb(255, 255, 255)" stroke="none" x="448" y="536" width="111" height="27" stroke-width="0"/><text x="502.5" y="545.56">Compute transmission</text><text x="502.5" y="558.56">time (ID = 16)</text></g><path d="M 409.5 700 L 747.56 699.83" fill="none" stroke="rgb(0, 0, 0)" stroke-miterlimit="10" pointer-events="stroke"/><path d="M 754.56 699.83 L 747.56 703.33 L 747.56 696.33 Z" fill="rgb(0, 0, 0)" stroke="rgb(0, 0, 0)" stroke-miterlimit="10" pointer-events="all"/><g fill="rgb(0, 0, 0)" font-family="Helvetica" text-anchor="middle" font-size="11px"><rect fill="rgb(255, 255, 255)" stroke="none" x="468" y="684" width="91" height="14" stroke-width="0"/><text x="512.61" y="694.45">Transmit (ID = 16)</text></g><rect x="68" y="626" width="17" height="144" fill="none" stroke="none" pointer-events="all"/><path d="M 85 626 L 76.5 626 L 76.5 770 L 85 770" fill="none" stroke="rgb(0, 0, 0)" stroke-width="2" stroke-miterlimit="10" pointer-events="all"/><path d="M 68 698 L 76.5 698" fill="none" stroke="rgb(0, 0, 0)" stroke-width="2" stroke-miterlimit="10" pointer-events="all"/><rect x="1" y="685" width="80" height="26" fill="none" stroke="none" pointer-events="all"/><g fill="rgb(0, 0, 0)" font-family="Helvetica" font-size="11px"><text x="5.5" y="702">Event Mode</text></g><path d="M 396.67 656.52 L 241.12 656.03" fill="none" stroke="rgb(0, 0, 0)" stroke-miterlimit="10" pointer-events="stroke"/><path d="M 234.12 656 L 241.13 652.53 L 241.11 659.53 Z" fill="rgb(0, 0, 0)" stroke="rgb(0, 0, 0)" stroke-miterlimit="10" pointer-events="all"/><g fill="rgb(0, 0, 0)" font-family="Helvetica" text-anchor="middle" font-size="11px"><rect fill="rgb(255, 255, 255)" stroke="none" x="271" y="641" width="91" height="14" stroke-width="0"/><text x="315.89" y="650.76">Transmit (ID = 16)</text></g><path d="M 413 743 L 612.88 743" fill="none" stroke="rgb(0, 0, 0)" stroke-miterlimit="10" pointer-events="stroke"/><path d="M 621.88 743 L 612.88 747.5 L 612.88 738.5 Z" fill="rgb(0, 0, 0)" stroke="rgb(0, 0, 0)" stroke-miterlimit="10" pointer-events="all"/><g fill="rgb(0, 0, 0)" font-family="Helvetica" text-anchor="middle" font-size="11px"><rect fill="rgb(255, 255, 255)" stroke="none" x="475" y="728" width="87" height="14" stroke-width="0"/><text x="517.5" y="737.5">Confirm (ID = 16)</text></g><path d="M 174 636 L 169 636 Q 164 636 164 646 L 164 666 Q 164 676 159 676 L 156.5 676 Q 154 676 159 676 L 161.5 676 Q 164 676 164 686 L 164 706 Q 164 716 169 716 L 174 716" fill="none" stroke="rgb(0, 0, 0)" stroke-width="2" stroke-miterlimit="10" pointer-events="all"/><rect x="80" y="663" width="80" height="26" fill="none" stroke="none" pointer-events="all"/><g fill="rgb(0, 0, 0)" font-family="Helvetica" text-anchor="middle" font-size="11px"><text x="119.5" y="667">Super-dense</text><text x="119.5" y="680">time iteration</text><text x="119.5" y="693">(t, 1)</text></g><path d="M 174 722 L 169 722 Q 164 722 164 731.5 L 164 736.25 Q 164 741 159 741 L 156.5 741 Q 154 741 159 741 L 161.5 741 Q 164 741 164 750.5 L 164 755.25 Q 164 760 169 760 L 174 760" fill="none" stroke="rgb(0, 0, 0)" stroke-width="2" stroke-miterlimit="10" pointer-events="all"/><rect x="81" y="728" width="80" height="26" fill="none" stroke="none" pointer-events="all"/><g fill="rgb(0, 0, 0)" font-family="Helvetica" text-anchor="middle" font-size="11px"><text x="120.5" y="732">Super-dense</text><text x="120.5" y="745">time iteration</text><text x="120.5" y="758">(t, 2)</text></g></g></svg>